<?xml version="1.0" encoding="UTF-8"?>
<svg width="315px" height="315px" viewBox="0 0 315 315" version="1.1" xmlns="http://www.w3.org/2000/svg" xmlns:xlink="http://www.w3.org/1999/xlink">
    <!-- Generator: Sketch 43.2 (39069) - http://www.bohemiancoding.com/sketch -->
    <title>Background</title>
    <desc>Created with Sketch.</desc>
    <defs></defs>
    <g id="Page-1" stroke="none" stroke-width="1" fill="none" fill-rule="evenodd">
        <g id="Full-Logo">
            <g id="Background">
                <circle id="Oval-Copy" fill="#282828" cx="157.5" cy="157.5" r="157.5"></circle>
                <path d="M106.636001,161.627329 C105.118539,159.471798 110.103968,153.97597 115.2976,150.370502 C118.659503,147.821951 135.431032,144.586668 138.769101,139.869179 C141.736141,134.793207 124.05091,111.310612 120.654151,103.356245 C118.067117,94.3726327 119.394151,94.2676121 116.032124,87.1665508 C110.811504,78.1339035 92.4318924,63.6668707 96.613354,60.1556297 C101.241216,58.7520023 121.736152,66.8361738 141.909914,84.6804407 C147.933458,92.4591709 144.144024,96.3163842 156.598037,113.213789 C164.935636,122.821816 169.560766,126.331443 173.449883,127.738546 C184.750023,132.002723 185.157081,126.958053 196.778749,129.704022 C202.265707,131.00048 202.388071,132.717694 207.667134,135.8234 C213.549498,139.284032 219.088816,138.671745 218.620568,143.178324 C217.407664,145.255625 205.700105,140.174971 197.73337,142.542862 C192.999867,143.994779 182.641427,146.91053 182.915275,154.231688 C182.915275,159.300478 188.137817,170.579876 194.808681,180.528071 C201.339067,190.266774 209.311957,198.693056 210.113645,202.144703 C216.316591,223.625924 219.246979,252.22868 214.460706,255.414766 C209.640566,258.623397 204.488516,235.895965 192.999867,218.949501 C182.388553,203.297161 181.072579,205.554298 170.26078,190.21716 C160.659278,176.596894 163.208493,168.316824 152.173265,161.034694 C150.325596,160.469618 147.022783,158.406694 124.554068,160.05537 C120.354234,160.360625 107.668829,164.733259 106.636001,161.627329 Z" id="Path-2" fill="#FFFFFF"></path>
            </g>
        </g>
    </g>
</svg>